<svg height="512pt" viewBox="0 -20 512 512" width="512pt" xmlns="http://www.w3.org/2000/svg"><path d="m475.828125 261.964844c24-36.257813 36.171875-68.804688 36.171875-96.738282 0-91.105468-68.40625-165.226562-152.488281-165.226562-38.324219 0-75.480469 15.875-103.511719 43.902344-28.03125-28.027344-65.1875-43.902344-103.511719-43.902344-24.15625 0-48.210937 6.273438-69.558593 18.148438-4.828126 2.683593-6.5625 8.773437-3.878907 13.597656 2.683594 4.828125 8.773438 6.5625 13.597657 3.882812 18.648437-10.371094 38.78125-15.628906 59.839843-15.628906 36.609375 0 70.691407 16.023438 95.960938 45.117188 1.898437 2.1875 4.652343 3.441406 7.550781 3.441406s5.648438-1.257813 7.550781-3.441406c25.269531-29.09375 59.351563-45.117188 95.960938-45.117188 73.054687 0 132.488281 65.148438 132.488281 145.226562 0 23.460938-10.613281 51.617188-31.546875 83.714844-20.152344-14.433594-44.828125-22.941406-71.453125-22.941406-67.820312 0-123 55.179688-123 123 0 27.644531 9.171875 53.191406 24.628906 73.753906-15.484375 12.4375-27.816406 21.773438-34.625 26.835938-16.71875-12.441406-66.773437-50.6875-116.230468-98.308594-78.359376-75.433594-119.773438-139.773438-119.773438-186.054688 0-27.222656 6.914062-53.757812 19.992188-76.738281 2.730468-4.800781 1.054687-10.90625-3.746094-13.636719-4.796875-2.734374-10.902344-1.054687-13.636719 3.742188-14.792969 25.992188-22.609375 55.945312-22.609375 86.632812 0 52.625 42.414062 120.125 126.066406 200.625 61.308594 58.996094 123.480469 103.824219 124.097656 104.269532 1.746094 1.253906 3.789063 1.878906 5.835938 1.878906s4.089844-.625 5.835938-1.878906c.742187-.535156 17.375-12.507813 42.074218-32.386719 22.113282 21.210937 52.105469 34.265625 85.089844 34.265625 67.820312 0 123-55.179688 123-123 0-33.964844-13.839844-64.757812-36.171875-87.035156zm-86.828125 190.035156c-56.792969 0-103-46.207031-103-103s46.207031-103 103-103 103 46.207031 103 103-46.207031 103-103 103zm0 0"/><path d="m449 319h-30v-30c0-5.523438-4.476562-10-10-10h-40c-5.523438 0-10 4.476562-10 10v30h-30c-5.523438 0-10 4.476562-10 10v40c0 5.523438 4.476562 10 10 10h30v30c0 5.523438 4.476562 10 10 10h40c5.523438 0 10-4.476562 10-10v-30h30c5.523438 0 10-4.476562 10-10v-40c0-5.523438-4.476562-10-10-10zm-10 40h-30c-5.523438 0-10 4.476562-10 10v30h-20v-30c0-5.523438-4.476562-10-10-10h-30v-20h30c5.523438 0 10-4.476562 10-10v-30h20v30c0 5.523438 4.476562 10 10 10h30zm0 0"/><path d="m55.671875 61.339844c2.636719 0 5.207031-1.070313 7.066406-2.929688 1.871094-1.859375 2.933594-4.441406 2.933594-7.070312s-1.0625-5.210938-2.933594-7.070313c-1.859375-1.859375-4.429687-2.929687-7.066406-2.929687-2.632813 0-5.210937 1.070312-7.070313 2.929687-1.859374 1.859375-2.929687 4.441407-2.929687 7.070313s1.066406 5.210937 2.929687 7.070312c1.859376 1.859375 4.4375 2.929688 7.070313 2.929688zm0 0"/></svg>